<svg height="32" viewBox="0 0 54 16" width="108" xmlns="http://www.w3.org/2000/svg" class="cdu-logo"><g fill="#BB232A" fill-rule="evenodd" id="cdu-logo-group" stroke="none" stroke-width="1"><path d="M42.199.26L40.9 8.726c-.29 1.892.754 3.303 2.778 3.303 1.723 0 3.175-1.16 3.503-3.303L48.48.26h5.092l-1.22 7.952c-.672 4.383-3.116 7.4-9.036 7.4-3.934 0-6.116-1.422-7.057-3.256-.704-1.372-.736-2.987-.528-4.341L36.92.26h5.279z" id="cdu-c"></path> <path d="M28.946 7.762c-.342 2.24-1.289 4.272-4.467 4.272h-2.756l1.31-8.548h2.456c1.177 0 1.888.184 2.428.628.897.74 1.262 2.12 1.029 3.648m-1.798-7.5h-8.693l-2.313 15.092h9.21c5.771 0 8.253-3.005 8.768-7.593.525-4.677-2.16-7.5-6.972-7.5" id="cdu-D"></path> <path d="M14.78 11.335c-.76.235-2.502.435-4.236.435-3.911 0-5.265-1.838-5.12-4.009.16-2.417 2.248-4.125 6.304-4.125 1.636 0 3.385.419 3.81.551l.546-3.546C15.332.429 13.188 0 10.25 0 3.036 0 .569 3.987.099 6.905c-.66 4.104 1.958 8.709 8.91 8.709 2.216 0 4.48-.328 5.212-.668l.559-3.611z" id="cdu-U"></path></g></svg>