<?xml version="1.0" encoding="UTF-8"?>
<svg xmlns="http://www.w3.org/2000/svg" id="Logo" viewBox="0 0 321.08 170.7">
  <defs>
    <style>.cls-1{fill:#3cb4e7;}.cls-2{fill:#ffd400;}.cls-3{fill:#409a3c;}</style>
  </defs>
  <title>Gruene_Logo_4c_aufTransparent_hellesBlau+gr++naufweiss</title>
  <polygon id="Balken" class="cls-1" points="0 170.89 197.26 170.89 199.19 159.53 1.91 159.53 0 170.89"></polygon>
  <path id="Blume" class="cls-2" d="M321.07,72.22c-.06-.43-1.14-.81-1.87-1.41-2.46-2-11.25-10.71-28.56-10.15a44.17,44.17,0,0,0-6,.59c3.69-1.2,5.6-1.91,6.71-2.36,1.34-.53,10.17-3.56,14.93-19.07.4-1.33,1.55-4.53,1.26-4.77s-3.32.23-6.32,2.06-13.13,3.43-14.33,3.62a16.2,16.2,0,0,0-8.12,2c5-5.14,10.31-12.44,11.73-22.69.68-4.91.4-6.92.19-6.91a3.43,3.43,0,0,0-.83.14c-1.12.33-2.25,1.27-5.93,3.73s-7.58,5.19-7.58,5.19,1.33-13.39.92-13.7-8-.23-19.67,12.76c0,0,1.32-11.13-.87-15.32,0,0-.6-3-1.08-4.63-.24-.79-.86-1.63-1-1.56a6.38,6.38,0,0,0-2.81,2.16c-2.58,2.95-14.53,6.55-16.52,22-1.49-6.24-4.67-14.59-12.52-18.82-4.44-4.34-6.41-5.64-6.64-5.52s-.11,2-.78,6.37A30.63,30.63,0,0,1,214,12.37s-8.23-7.24-8.44-7.45c-.38-.38-5.4,15.5-3.93,23.43a50.89,50.89,0,0,0-7.34-4.45c-5.38-2.76-14.43-3.24-14.36-2.81.11.71,7.63,15.42,10.8,20.59,0,0-20.28-3.49-19.92-2.22a29.24,29.24,0,0,1,1.4,4.6s-8-.18-7.85.48,6,10.52,6.48,11.06c0,0-6.16,1.19-7.45,1.26-.89,0,4.11,13.84,17.8,17.28a54.94,54.94,0,0,0,5.61,1.11l5.1.49C200,76.06,205.36,74,204.44,71c0,0-.26-1.11-8.62-4.16,0,0,.23-1,.79-1.13s9.25,3,8.63,2.53-3.79-4-3.22-4,4.65,1.76,6,.49,2.11-3.45,3-3.93-2.27-3.38,1.85-2a2.54,2.54,0,0,0,.59-4.13c-2.2-2.56-9.17-10.81,2.2-.86,2.72,2.38,9.53-4.87,9-8.82a36.76,36.76,0,0,0,3.29,3c.58.3,4.38.75,5.25-.57.39-.6-1.4-6.22-.25-8.69a1.21,1.21,0,0,1,1,.47c.45.53.51,6.39,2.57,7.51,0,0,2.32-1.36,2.71-2.37s-.63,6.33,6.33,3.16c0,0,3.38-3,4.36-3.1s-.73,3.57.13,4.88,3.7,2.18,4.61.54,5.25-4.89,5.59-4.76-2.21,6.93-2.5,7.6a14.37,14.37,0,0,0-.73,2.4,3.29,3.29,0,0,0,2.7,2.42s4.48-2.61,9.14-6c-.49.59-1,1.2-1.48,1.86,0,0-6,6.18-6,7.08s2.07,2.9,3.76,1.76,5.76-2.82,6.12-2.52,1,1.13.15,1.62-5.59,3-5.59,3a50.21,50.21,0,0,0,12-1c-7.17,2.91-9.65,7.34-9.59,7.76.21,1.43,11.36-1.46,11.66-.76,1.6,3.63-3.53,1.39-5.78,1.77s-8,.5-2.71,5c0,0,1,.08-1.64,1.62s5.85,2.47,6.86,3.6-8.41-.11-8.22,2.72-1.62,1,4.63,7.72c0,0-3.75-.87-4.19-.34s8.22,7.71,8.16,9.75c0,0-1.76,1.22-2.51.15s-6-6.86-6.83-7a2.41,2.41,0,0,0-2.43,1.3s2.29,5.32,1.57,5.47-4.29-2.37-4.29-2.37-2.35,1-1.58,3.17,7.15,9.35,6.78,9.8c0,0-.54,1.19-1.36,1.1s-5.24-8.07-6.33-8.38,1.27,7.46,1.27,7.46-4-4.19-5-5.06-1.21.92-1.21.92l1.15,8.86S243.68,99,246.71,121c0,0-.29,1.25-.7,1.21s-3-7.3-2.74-9.28-2.18,5.5-2.18,5.5-3.88-15.45-11.94.39c0,0-.56-6-1.8-7a5.39,5.39,0,0,0-2.57-1.39c-.26,0-1.89-.07-3.35,2.7a53.79,53.79,0,0,0-10.35,25c-.17,5.68.47,15.93.13,18.13a2.1,2.1,0,0,0,.3,1.85c.06.13,2.18-1.62,2.86-2.07,1-.66,11.35-14.59,12-18.07,0,0,5.53,24.26,7.4,26.86.41.56.75,1.19,1,.75.56-.86,1.38-3.13,2-3.32a5.5,5.5,0,0,0,4.36-4c1.22-3.46,3.43-6.84,4.47-15.82,0,0,11.74,15,13.26,16.36.61.56,3.8-4.75,5.2-13.27s-1.62-20-3.53-20.38c0,0-.8-1.25,1.43-.46,1.26.46,6.15,8.94,17.41,15.37,1.9,1.09,5.93,1.11,6,1,.9-2.52-7.94-25.66-7.94-25.66s.22-.27,2,.46,18.66,11.65,28.9,6.54a8.69,8.69,0,0,0,2.2-1.26c1.17-5-7.85-14.58-13.39-18.91,0,0,14.55-.59,16.78-4.45A9.83,9.83,0,0,0,318,95c.24-.33-1.57-3.65-3.67-5.11-5.49-3.81-6.68-5.25-6.68-5.25a9.08,9.08,0,0,1,3.76-2.55c2.21-.69,9.38-5.12,7.47-7.3,0,0,2.31-2,2.22-2.53"></path>
  <g id="Typo" style="fill: #398c00;">
    <path d="M188.29,149.5l1.18-7.1c.18-1.09.32-2.37.42-3.82s.15-3.16.16-5.12c.1.86.24,1.78.41,2.73s.37,2,.6,3.07l2.23,10.24h7.6l4.62-27.82h-7.6l-1,6.25c-.19,1.17-.35,2.61-.49,4.33s-.26,3.78-.37,6.2L195.6,136c-.16-1-.31-1.83-.45-2.57s-.28-1.41-.39-2l-2.28-9.77h-7.17l-4.62,27.82Z"></path>
    <polygon points="177.41 149.5 178.52 142.85 171.74 142.85 172.4 138.93 178.47 138.93 179.58 132.28 173.5 132.28 174.16 128.33 180.93 128.33 182.04 121.68 167.37 121.68 162.75 149.5 177.41 149.5"></polygon>
    <path d="M146.51,149.5l1.18-7.1c.18-1.09.32-2.37.42-3.82s.15-3.16.16-5.12c.1.86.24,1.78.41,2.73s.37,2,.6,3.07l2.22,10.24h7.61l4.62-27.82h-7.6l-1,6.25c-.2,1.17-.36,2.61-.5,4.33s-.25,3.78-.36,6.2l-.41-2.46c-.16-1-.31-1.83-.46-2.57s-.27-1.41-.38-2l-2.28-9.77h-7.17l-4.62,27.82Z"></path>
    <path d="M107.75,130.64a4.26,4.26,0,0,1-1.33,2.52,3.45,3.45,0,0,1-2.44,1h-.53l1.11-6.63h.28q3.42,0,2.91,3.12m7.78.32c.53-3.15-.19-5.57-2.16-7.28q-2.31-2-7.65-2H97.64L93,149.5h7.85l1.62-9.73.25-1.84c.08.39.14.72.19,1a6,6,0,0,1,.09.67l2.25,9.91h8.53l-3.94-11.57a8.6,8.6,0,0,0,5.68-7"></path>
    <path d="M80.78,139.27H83.7a5.49,5.49,0,0,1-.45,1.47,4.23,4.23,0,0,1-.73,1.13,3.11,3.11,0,0,1-1,.72,2.79,2.79,0,0,1-1.18.26,2,2,0,0,1-2-1.55,12,12,0,0,1,.1-5q1.33-8,4.59-8a1.57,1.57,0,0,1,1.41.77,3.5,3.5,0,0,1,.44,2.08L93,128.51q-2-6.82-8.91-6.83a11.86,11.86,0,0,0-8.86,3.76,18.84,18.84,0,0,0-4.72,10.28q-1.06,6.43,1.31,10.13c1.6,2.44,4.16,3.65,7.68,3.65a11.19,11.19,0,0,0,8.74-3.74q3.09-3.42,4.39-11.22l.18-1.12h-11Z"></path>
    <polygon points="52.97 149.5 54.08 142.85 47.3 142.85 47.95 138.93 54.03 138.93 55.13 132.28 49.06 132.28 49.71 128.33 56.49 128.33 57.6 121.68 42.93 121.68 38.3 149.5 52.97 149.5"></polygon>
    <polygon points="39.3 121.68 31.41 121.68 26.78 149.5 34.67 149.5 39.3 121.68"></polygon>
    <path d="M18.07,135.89c-.75,4.51-2.55,6.82-5.4,7L15,128.68h.25a2.66,2.66,0,0,1,2.59,1.94,10.26,10.26,0,0,1,.2,5.27m8.11-.28q1.17-7-2.46-10.94-2.76-3-8.6-3H8.3L3.68,149.5h7.38q6.1,0,9.73-3.21,4.25-3.76,5.39-10.68"></path>
    <path d="M202.34,97.93a18.84,18.84,0,0,1-1.53,5.39c-.62,1.15-1.37,1.73-2.27,1.73q-2.47,0-1.17-7.9,1.11-6.62,3.64-6.61c1.7,0,2.15,2.46,1.33,7.39m6.81-10.31c-1.4-2.49-3.7-3.74-6.92-3.74A10.84,10.84,0,0,0,194,87.57a18.87,18.87,0,0,0-4.46,10q-1.11,6.68,1.07,10.4c1.46,2.5,3.86,3.75,7.18,3.75a10.37,10.37,0,0,0,7.94-3.71,19.5,19.5,0,0,0,4.39-10q1.1-6.62-1-10.36"></path>
    <path d="M179.89,93.43c-.39,2.38-1.33,3.57-2.8,3.57s-2.12-1.18-1.73-3.53c.42-2.5,1.39-3.74,2.92-3.74s2,1.23,1.61,3.7M186,86.61q-2.17-2.73-6.48-2.73a11.7,11.7,0,0,0-7.8,2.74,11.53,11.53,0,0,0-4,7.1,8.51,8.51,0,0,0,1.06,6.17,5.36,5.36,0,0,0,4.7,2.5,7.16,7.16,0,0,0,2.92-.79l-1,1.2c-.31.37-.57.7-.8,1l-6,7.91h8.48l3.47-4.78q6.14-8.42,6.92-13.16c.49-3,0-5.35-1.44-7.16"></path>
    <path d="M143.8,111.71a10.71,10.71,0,0,0,7.09-2.57,10.56,10.56,0,0,0,3.71-6.54,6.89,6.89,0,0,0-.41-4.07,9.3,9.3,0,0,0-3-3.39l-1.11-.85c-.95-.71-1.37-1.42-1.25-2.14A1.73,1.73,0,0,1,149.6,91a2.64,2.64,0,0,1,1.58-.48,3.69,3.69,0,0,1,2.28.82,6.43,6.43,0,0,1,1.83,2.24l1.39-8.34a11.61,11.61,0,0,0-5.45-1.38,9.81,9.81,0,0,0-5.69,1.74,10.16,10.16,0,0,0-1.67,1.4,12.73,12.73,0,0,0-1.39,1.75,10.84,10.84,0,0,0-1.6,3.93,7.82,7.82,0,0,0-.08,2.09,6.5,6.5,0,0,0,.51,1.92,7.47,7.47,0,0,0,1.18,1.81,13.77,13.77,0,0,0,1.9,1.77l1.14.92a2.29,2.29,0,0,1,1.05,2.1,1.86,1.86,0,0,1-.85,1.24,3,3,0,0,1-1.75.5q-2.72,0-4.53-3L138,110.58a16.41,16.41,0,0,0,5.78,1.13"></path>
    <polygon points="139.46 83.88 131.57 83.88 126.94 111.71 134.83 111.71 139.46 83.88"></polygon>
    <path d="M110.71,111.71l1.18-7.1c.18-1.1.32-2.38.41-3.83s.15-3.16.16-5.12c.11.87.25,1.78.42,2.74s.37,2,.6,3.07l2.22,10.24h7.6l4.63-27.83h-7.6l-1,6.26c-.2,1.16-.36,2.6-.5,4.32s-.25,3.79-.36,6.2L118,98.21c-.16-1-.32-1.83-.46-2.58s-.27-1.4-.39-2l-2.27-9.77h-7.17l-4.63,27.83Z"></path>
    <path d="M94.9,98.09q-1.12,6.76-5.4,7l2.36-14.17h.24a2.64,2.64,0,0,1,2.59,2,10.2,10.2,0,0,1,.21,5.26m8.11-.27q1.17-7-2.46-10.95-2.76-3-8.61-3H85.13L80.5,111.71h7.38c4.08,0,7.32-1.08,9.73-3.21,2.83-2.51,4.63-6.08,5.4-10.68"></path>
    <path d="M64.27,111.71l1.18-7.1c.18-1.1.32-2.38.41-3.83s.15-3.16.16-5.12c.11.87.25,1.78.42,2.74s.37,2,.6,3.07l2.22,10.24h7.6l4.63-27.83h-7.6l-1,6.26c-.19,1.16-.35,2.6-.49,4.32s-.25,3.79-.37,6.2l-.4-2.45c-.16-1-.32-1.83-.46-2.58s-.27-1.4-.39-2l-2.27-9.77H61.29l-4.63,27.83Z"></path>
    <path d="M24.82,92.09a2.57,2.57,0,0,1-1.12,1.76,4.09,4.09,0,0,1-2.35.63h-.53l.8-4.77.49,0h.33c1.85,0,2.65.8,2.38,2.42m-4.35,8.24a3.24,3.24,0,0,1,2.3.72,2.12,2.12,0,0,1,.54,2,3.14,3.14,0,0,1-1.21,2,4,4,0,0,1-2.49.76h-.28l-.4,0,.92-5.49ZM32.7,91.77A6.29,6.29,0,0,0,31.14,86Q29,83.88,23.87,83.88H14.69l-4.62,27.83H21.12a10.52,10.52,0,0,0,6.74-2.2,8.88,8.88,0,0,0,3.4-5.77,5.38,5.38,0,0,0-.72-4.36,6.33,6.33,0,0,0-4.23-1.95q5.52-.44,6.39-5.66"></path>
    <path d="M128.74,139.83a6.3,6.3,0,0,1-.87,2.61,2,2,0,0,1-1.69.7,1.42,1.42,0,0,1-1.44-.75,5,5,0,0,1,0-2.58l3-18H119.8l-3.09,18.62q-.9,5.36,2.18,7.78a10.16,10.16,0,0,0,6.48,1.92,11.85,11.85,0,0,0,6.36-1.73,10.28,10.28,0,0,0,3.13-2.9,9.63,9.63,0,0,0,1.48-4l3.28-19.68h-7.89Z"></path>
    <path d="M128.85,114.58a2.47,2.47,0,0,0-2-.84,3.46,3.46,0,0,0-2.26.84,3.25,3.25,0,0,0-1.22,2,2.32,2.32,0,0,0,.54,2,2.53,2.53,0,0,0,2,.84,3.45,3.45,0,0,0,2.24-.84,3.24,3.24,0,0,0,1.23-2,2.3,2.3,0,0,0-.54-2"></path>
    <path d="M137.24,114.59a2.53,2.53,0,0,0-2-.85,3.52,3.52,0,0,0-2.28.84,3.24,3.24,0,0,0-1.21,2,2.28,2.28,0,0,0,.54,2,2.54,2.54,0,0,0,2,.84,3.48,3.48,0,0,0,2.26-.84,3.21,3.21,0,0,0,1.21-2,2.4,2.4,0,0,0-.54-2.06"></path>
    <path d="M46.41,101.85a6,6,0,0,1-.87,2.61,2,2,0,0,1-1.68.7,1.41,1.41,0,0,1-1.44-.75,4.84,4.84,0,0,1,0-2.58l3-18H37.48l-3.1,18.62c-.59,3.58.14,6.17,2.19,7.79a10.16,10.16,0,0,0,6.48,1.91,11.76,11.76,0,0,0,6.36-1.73,10,10,0,0,0,3.13-2.9,9.58,9.58,0,0,0,1.48-4l3.27-19.69H49.4Z"></path>
    <path d="M46.53,76.6a2.48,2.48,0,0,0-2-.85,3.48,3.48,0,0,0-2.26.85,3.23,3.23,0,0,0-1.22,2,2.34,2.34,0,0,0,.54,2,2.53,2.53,0,0,0,2,.84,3.46,3.46,0,0,0,2.25-.84,3.28,3.28,0,0,0,1.23-2,2.34,2.34,0,0,0-.54-2"></path>
    <path d="M54.92,76.61a2.55,2.55,0,0,0-2-.86,3.51,3.51,0,0,0-2.28.85,3.18,3.18,0,0,0-1.21,2,2.31,2.31,0,0,0,.54,2,2.54,2.54,0,0,0,2,.84,3.5,3.5,0,0,0,2.26-.84,3.28,3.28,0,0,0,1.21-2,2.39,2.39,0,0,0-.54-2.06"></path>
  </g>
</svg>
